<svg xmlns="http://www.w3.org/2000/svg" xmlns:xlink="http://www.w3.org/1999/xlink" version="1.1" id="Layer_1" x="0px" y="0px" width="1254" viewBox="0 0 1254 1254" enable-background="new 0 0 1254 1254" xml:space="preserve" height="1254">
<path fill="#FBF5EC" opacity="1.000000" stroke="none" d="  M855.000000,1255.000000    C570.000000,1255.000000 285.500000,1255.000000 1.000000,1255.000000    C1.000000,837.000000 1.000000,419.000000 1.000000,1.000000    C419.000000,1.000000 837.000000,1.000000 1255.000000,1.000000    C1255.000000,419.000000 1255.000000,837.000000 1255.000000,1255.000000    C1121.833374,1255.000000 988.666687,1255.000000 855.000000,1255.000000   M399.103333,426.832794    C394.506439,436.762207 393.834595,447.291351 393.839844,458.053375    C393.917847,617.859497 393.890106,777.665710 393.954926,937.471863    C393.957062,942.773376 394.321808,948.127197 395.111389,953.367126    C398.958588,978.899597 418.452423,998.729553 443.909485,1000.906189    C461.938568,1002.447693 480.225159,1002.416260 498.298401,1001.376160    C506.936554,1000.879089 516.184143,997.843079 523.695801,993.456909    C543.146973,982.098877 551.838257,963.873535 551.926514,941.632446    C552.089172,900.640015 551.983887,859.646545 551.985229,818.653503    C551.985657,804.219604 557.102234,799.003967 571.448914,798.999756    C616.774536,798.986389 662.100403,799.088562 707.425781,798.980957    C734.212158,798.917358 760.539490,795.632629 786.032349,786.919189    C841.194275,768.065002 878.656555,731.244934 897.993652,676.259888    C909.859680,642.518921 912.623352,607.785950 908.199036,572.369751    C904.642822,543.902649 896.006653,517.188782 881.256287,492.519318    C871.943542,476.944153 859.907654,463.636963 847.164978,450.529938    C851.523254,441.746826 854.089722,432.748535 852.470947,422.693054    C850.392639,409.783508 843.643494,399.951355 833.577637,392.212921    C830.330261,389.716400 830.221924,387.487488 831.444275,383.856323    C837.488525,365.901703 838.751465,347.574738 835.197998,328.890503    C831.970276,311.919403 825.437256,296.580139 814.070068,283.411926    C813.044617,282.223969 812.257202,280.512970 812.078308,278.961914    C810.618286,266.305450 809.830444,253.549683 807.834473,240.983536    C806.150330,230.380692 803.799316,219.774048 800.517029,209.563354    C796.664978,197.580093 788.608276,195.390244 778.072510,202.338928    C762.495178,212.612701 750.238220,226.395264 738.474487,240.572144    C735.667114,243.955383 732.881775,244.375198 729.389465,243.844910    C712.370239,241.260468 695.404419,241.174866 678.341309,243.739746    C674.727112,244.283020 670.976929,245.738403 666.983704,241.100235    C655.851135,228.169754 643.705505,216.063507 631.388550,204.226334    C627.006592,200.015030 621.373169,195.822296 614.321045,199.095627    C609.096558,201.520615 606.375183,206.357330 605.100525,211.546906    C601.468994,226.331802 598.105835,241.192657 595.100037,256.116821    C593.685120,263.142395 593.331116,270.381653 592.610962,276.543427    C575.812073,273.585358 559.476807,269.746979 542.923401,268.098022    C529.655762,266.776337 516.012573,267.088684 502.736267,268.525604    C485.801666,270.358490 469.916504,276.334839 455.025726,284.907928    C439.300323,293.961517 426.112701,305.894196 416.275177,320.888977    C398.980865,347.249847 390.911102,376.266907 395.094238,407.982452    C395.900177,414.093018 397.831116,420.055176 399.103333,426.832794   M586.174377,1090.282471    C583.780151,1087.104126 581.385864,1083.925781 578.831543,1080.534912    C587.040161,1070.999146 595.025146,1061.633789 603.118652,1052.363281    C606.551697,1048.431030 607.079285,1044.600464 604.236328,1041.820557    C601.294373,1038.943848 596.999756,1039.556641 593.381226,1043.570557    C590.261841,1047.030884 587.313477,1050.645508 584.298279,1054.199463    C578.447083,1061.096191 572.602112,1067.998047 566.754517,1074.897827    C565.717041,1065.380981 565.802979,1056.290283 565.680969,1047.202271    C565.619690,1042.635986 563.005371,1039.913208 559.073730,1040.105347    C554.747070,1040.316528 552.984192,1042.967896 552.992920,1047.075806    C553.044861,1071.382568 553.063660,1095.689453 553.168152,1119.995972    C553.187744,1124.565430 555.767517,1127.274048 559.634277,1127.250732    C563.341187,1127.228394 565.760864,1124.348999 565.782166,1119.719849    C565.809753,1113.726685 566.008606,1107.713379 565.596680,1101.745850    C565.276062,1097.100830 567.002808,1093.917480 569.665222,1092.000366    C579.754944,1102.368164 589.527649,1112.527344 599.471497,1122.516113    C601.179932,1124.232300 603.477356,1125.582397 605.749878,1126.465576    C609.263977,1127.831055 612.416748,1126.884155 614.143616,1123.289917    C615.786255,1119.870972 614.503357,1116.923340 611.528259,1115.095703    C601.385803,1108.865234 594.023376,1099.848267 586.174377,1090.282471   M348.544708,1040.904663    C342.269348,1041.065552 335.977295,1040.999146 329.723969,1041.459595    C324.751556,1041.825684 322.530945,1045.087891 322.532135,1049.968262    C322.535797,1065.103882 322.436981,1080.240234 322.559174,1095.374878    C322.627625,1103.855103 322.789917,1112.354614 323.502441,1120.795410    C323.684204,1122.948730 325.718475,1125.854614 327.644043,1126.677612    C329.330200,1127.398315 332.561615,1126.258057 334.168549,1124.858398    C335.472321,1123.722900 335.773254,1120.993408 335.831421,1118.951294    C336.023529,1112.209106 335.903839,1105.458130 335.903839,1098.396729    C338.074646,1098.396729 339.730499,1098.460083 341.380096,1098.385742    C349.017578,1098.041626 356.276306,1096.186890 362.415070,1091.547852    C372.227203,1084.132935 375.309814,1073.847900 372.634308,1062.247925    C369.845001,1050.154663 361.354706,1043.483398 348.544708,1040.904663   M720.417847,1095.186646    C721.229980,1099.594360 721.561157,1104.159790 722.944336,1108.380371    C727.113098,1121.101685 737.131897,1125.725830 749.738953,1121.190308    C750.454346,1120.932861 751.257324,1120.918701 753.573364,1120.531616    C752.155518,1127.728516 751.677185,1134.429321 749.419495,1140.464600    C746.955444,1147.051270 739.453735,1147.536987 735.677795,1141.874146    C733.238159,1138.215454 730.329712,1136.661011 726.485901,1139.031006    C722.460449,1141.512939 723.277405,1145.260620 725.070984,1148.744507    C728.583496,1155.566895 737.836792,1159.666382 745.570557,1157.996460    C755.240112,1155.908691 762.670044,1148.463745 763.503479,1136.531616    C764.835388,1117.462524 764.680847,1098.285278 764.956970,1079.151001    C765.008728,1075.563354 762.736877,1073.203003 758.970154,1073.084717    C755.244873,1072.967773 753.027588,1075.082031 752.478210,1078.682251    C752.153992,1080.806885 752.389160,1083.010376 752.202209,1085.163574    C751.714355,1090.782837 751.608765,1096.494141 750.455933,1101.980591    C749.273743,1107.607422 745.195557,1111.022095 741.425293,1110.512207    C736.066223,1109.787354 734.468140,1105.507935 734.021973,1101.119995    C733.350952,1094.521606 733.192871,1087.850952 733.192932,1081.210938    C733.192993,1076.284058 731.654419,1073.509521 727.850403,1073.098145    C723.925842,1072.673584 720.996704,1075.384766 720.671509,1080.261230    C720.361450,1084.909546 720.479004,1089.586304 720.417847,1095.186646   M818.286987,1040.927246    C805.554443,1040.236206 795.941956,1045.966797 789.221252,1056.218872    C778.248108,1072.958008 776.887695,1090.869019 785.243835,1109.047607    C794.278442,1128.702148 821.041748,1133.951294 836.917480,1119.556274    C840.513794,1116.295410 841.127625,1112.591675 838.584717,1109.496582    C835.969543,1106.313477 832.690857,1106.413940 828.668823,1109.800293    C819.095581,1117.860596 806.190002,1116.160767 798.989197,1105.891113    C790.553711,1093.860596 791.566650,1072.917603 801.121338,1061.807373    C809.691589,1051.841919 818.560181,1051.412354 828.552124,1059.797852    C830.301514,1061.265991 834.520142,1061.588867 836.464539,1060.470215    C838.075562,1059.543213 838.676575,1055.658691 838.477051,1053.185303    C838.330078,1051.362915 836.539856,1049.009399 834.837219,1048.101318    C829.792664,1045.410767 824.428772,1043.318848 818.286987,1040.927246   M857.601929,1085.167114    C852.690674,1093.833374 851.379395,1103.013794 853.980225,1112.630859    C857.598206,1126.008911 872.312317,1131.343262 883.232483,1123.195190    C885.447693,1121.542358 887.132935,1119.179199 889.062561,1117.143555    C888.632935,1117.768799 888.203308,1118.393921 887.773682,1119.019043    C890.957642,1121.342529 893.975037,1123.956543 897.373840,1125.905273    C900.583496,1127.745605 903.988708,1127.365601 906.101929,1123.917847    C908.056824,1120.728516 906.773682,1118.113647 904.333008,1115.473999    C902.300049,1113.275391 900.187195,1110.571045 899.569519,1107.769043    C898.434753,1102.621582 898.041626,1097.243774 897.938782,1091.950317    C897.751465,1082.307617 891.724121,1074.621948 882.097656,1073.050903    C871.526611,1071.325562 863.732849,1075.922607 857.601929,1085.167114   M475.270233,1105.663208    C475.122650,1100.875122 475.725403,1095.914185 474.669647,1091.335449    C472.540466,1082.101318 466.670105,1075.732178 457.300507,1073.228882    C447.898132,1070.717041 439.584137,1073.154297 433.438293,1080.560913    C426.143188,1089.352783 424.386658,1099.662598 427.880981,1110.586914    C431.776398,1122.765137 442.001373,1129.066284 454.566895,1126.948364    C466.109833,1125.002808 472.393036,1117.460571 475.270233,1105.663208   M932.880615,1088.610596    C933.008667,1087.040283 933.136719,1085.469971 933.281738,1083.691650    C935.537292,1083.691650 937.189392,1083.688110 938.841492,1083.692749    C940.672974,1083.697754 942.505920,1083.761475 944.335632,1083.709717    C949.277222,1083.569824 952.074280,1081.405884 951.852905,1077.640991    C951.583069,1073.052124 948.597778,1071.422119 944.384399,1071.415771    C940.962952,1071.410645 937.541565,1071.414673 933.822205,1071.414673    C934.219971,1066.096069 934.621521,1061.635254 934.870300,1057.166016    C935.168701,1051.804199 933.300659,1048.910156 929.478943,1048.536011    C925.536438,1048.150024 922.895813,1050.992920 922.352966,1056.370361    C921.857056,1061.282837 921.473694,1066.206787 921.048767,1071.034058    C915.848389,1071.973755 908.831848,1069.466919 908.473267,1077.259033    C908.118225,1084.973633 915.165405,1083.286743 919.967773,1084.122192    C919.967773,1089.554443 919.636475,1094.709106 920.058105,1099.801514    C920.507751,1105.232788 920.902771,1110.871948 922.671875,1115.949951    C926.962830,1128.267090 942.485229,1131.353882 951.643982,1122.098145    C954.374878,1119.338257 955.715454,1116.123291 952.842712,1112.807007    C950.042908,1109.574707 946.978943,1109.996338 943.667114,1112.642822    C938.611145,1116.682983 934.776428,1115.437744 933.810913,1108.977783    C932.859253,1102.610596 933.128784,1096.060791 932.880615,1088.610596   M687.774658,1051.888184    C685.374390,1050.845215 682.610413,1048.547119 680.674988,1049.108032    C678.694275,1049.682007 677.073792,1052.878784 676.132080,1055.258667    C675.246765,1057.495728 675.355896,1060.158569 675.197327,1062.645020    C674.714355,1070.217651 674.749023,1070.235596 667.084717,1071.560547    C663.648804,1072.154541 661.608704,1074.111206 661.656067,1077.615479    C661.706970,1081.382080 663.964233,1083.327148 667.654419,1083.622559    C669.569275,1083.775757 671.490906,1083.843750 673.251038,1083.941284    C673.251038,1090.271851 672.791870,1095.968750 673.380615,1101.555420    C673.965637,1107.107666 674.751831,1112.921509 676.955933,1117.962158    C681.746887,1128.918701 696.875061,1130.756958 704.980774,1121.895020    C707.656433,1118.969727 708.699463,1115.776489 705.725647,1112.592773    C702.924866,1109.594116 699.980957,1110.286987 696.913025,1112.722900    C692.087219,1116.554565 687.933655,1115.385254 687.186707,1109.435303    C686.143188,1101.123169 686.223511,1092.669922 685.846069,1084.759888    C687.252930,1084.102905 687.548889,1083.848022 687.850037,1083.841919    C691.174683,1083.772705 694.503113,1083.814941 697.824829,1083.683960    C702.656250,1083.493530 705.456055,1081.157471 705.416626,1077.507446    C705.376160,1073.765625 702.634338,1071.515137 697.816345,1071.406982    C694.417603,1071.330566 691.015808,1071.392212 688.077148,1071.392212    C688.077148,1064.503296 688.077148,1058.546631 687.774658,1051.888184   M529.051880,1115.721191    C526.685608,1110.069214 523.671814,1109.168213 518.762451,1112.645020    C513.800476,1116.159058 509.893951,1115.571899 508.595428,1110.449951    C506.376862,1101.698853 507.122803,1092.778076 507.904327,1083.609253    C512.084961,1083.609253 515.574219,1083.670776 519.060364,1083.593140    C523.092651,1083.503174 526.443237,1082.280640 526.686523,1077.538208    C526.877319,1073.820557 523.956299,1071.536255 519.130371,1071.422241    C515.720032,1071.341553 512.306213,1071.406616 508.773529,1071.406616    C508.773529,1069.483154 508.710144,1068.483643 508.785065,1067.494507    C509.036377,1064.176025 509.347076,1060.862061 509.616608,1057.544800    C510.061707,1052.066284 508.117798,1048.966919 504.056610,1048.649902    C500.025452,1048.335205 497.799927,1050.978394 497.234589,1056.656494    C496.759308,1061.430176 496.224243,1066.197876 495.720001,1070.927246    C490.931519,1072.364624 483.727570,1069.558716 483.406525,1077.441895    C483.091644,1085.173218 490.395874,1082.619873 494.491943,1084.236328    C494.491943,1089.884399 493.912903,1095.426147 494.642426,1100.789917    C495.503265,1107.119507 496.671204,1113.658203 499.216919,1119.441040    C502.079315,1125.943237 509.125824,1128.397339 516.664856,1126.914795    C522.614075,1125.744751 527.843201,1123.417480 529.051880,1115.721191   M390.218689,1114.152710    C391.391205,1116.529541 392.266693,1119.120239 393.793671,1121.242065    C397.884369,1126.926147 406.639221,1128.950073 412.659790,1125.812012    C415.571320,1124.294434 417.421844,1121.997803 416.457886,1118.531494    C415.450653,1114.909668 412.885284,1113.301758 409.203583,1114.312866    C404.833069,1115.513184 402.707672,1113.271973 402.117310,1109.541870    C401.339661,1104.627930 400.749207,1099.617310 400.789246,1094.654053    C400.895416,1081.500488 401.422180,1068.350952 401.700623,1055.197998    C401.806824,1050.181030 399.424866,1047.259766 395.455750,1047.182617    C391.667999,1047.109009 389.450592,1049.729980 389.149139,1054.603394    C388.912689,1058.426392 388.351868,1062.255737 388.453552,1066.068604    C388.874023,1081.838379 389.491669,1097.602905 390.218689,1114.152710   M645.144409,1100.139038    C645.122009,1093.475586 645.124329,1086.811890 645.069031,1080.148804    C645.028564,1075.274048 642.918213,1072.725464 638.993408,1072.681030    C635.109375,1072.637085 632.598083,1075.220459 632.626282,1079.977783    C632.705200,1093.301392 632.913940,1106.626221 633.264221,1119.945435    C633.382751,1124.451172 636.305298,1127.219727 640.130188,1126.832642    C644.423584,1126.398438 646.053406,1123.644775 645.884949,1119.549438    C645.631592,1113.392212 645.408142,1107.233765 645.144409,1100.139038   M637.065369,1048.253784    C632.602356,1049.865845 630.761719,1053.055298 631.942566,1057.612305    C632.922485,1061.393311 635.906921,1062.963013 639.559875,1062.538940    C643.520630,1062.079346 645.758911,1059.536377 645.875427,1055.457642    C646.004639,1050.935547 643.376953,1048.590210 637.065369,1048.253784   z"/>
<path fill="#9BA38A" opacity="1.000000" stroke="none" d="  M846.819885,451.207520    C859.907654,463.636963 871.943542,476.944153 881.256287,492.519318    C896.006653,517.188782 904.642822,543.902649 908.199036,572.369751    C912.623352,607.785950 909.859680,642.518921 897.993652,676.259888    C878.656555,731.244934 841.194275,768.065002 786.032349,786.919189    C760.539490,795.632629 734.212158,798.917358 707.425781,798.980957    C662.100403,799.088562 616.774536,798.986389 571.448914,798.999756    C557.102234,799.003967 551.985657,804.219604 551.985229,818.653503    C551.983887,859.646545 552.089172,900.640015 551.926514,941.632446    C551.838257,963.873535 543.146973,982.098877 523.695801,993.456909    C516.184143,997.843079 506.936554,1000.879089 498.298401,1001.376160    C480.225159,1002.416260 461.938568,1002.447693 443.909485,1000.906189    C418.452423,998.729553 398.958588,978.899597 395.111389,953.367126    C394.321808,948.127197 393.957062,942.773376 393.954926,937.471863    C393.890106,777.665710 393.917847,617.859497 393.839844,458.053375    C393.834595,447.291351 394.506439,436.762207 399.438477,426.271057    C403.132599,421.838898 406.101471,417.520599 409.928009,414.186829    C419.228455,406.084167 430.785645,404.156036 442.588348,404.134613    C511.183563,404.010132 579.779785,403.886200 648.374207,404.148132    C676.800415,404.256653 705.254395,404.705811 733.637024,406.152405    C755.157166,407.249298 775.872925,413.179291 795.938110,421.022308    C814.532288,428.290314 831.259583,438.784851 846.819885,451.207520   M642.500000,520.948975    C618.184387,520.944336 593.868774,520.940613 569.553162,520.934570    C558.222290,520.931763 552.204102,526.351990 552.167847,537.503113    C552.029175,580.137756 552.023010,622.773376 552.163025,665.407959    C552.198486,676.209900 558.415588,681.958984 569.181946,681.962830    C600.825134,681.974182 632.469177,682.069519 664.110840,681.845764    C671.392334,681.794312 678.744751,681.062683 685.928345,679.842407    C709.184814,675.892029 727.659546,664.382751 739.386353,643.570496    C748.572632,627.267151 751.153625,609.482239 749.189148,590.953247    C745.524719,556.389343 726.096619,533.839783 692.590210,524.860840    C676.420959,520.527893 659.967407,520.925293 642.500000,520.948975   z"/>
<path fill="#F2E4CD" opacity="1.000000" stroke="none" d="  M846.992432,450.868713    C831.259583,438.784851 814.532288,428.290314 795.938110,421.022308    C775.872925,413.179291 755.157166,407.249298 733.637024,406.152405    C705.254395,404.705811 676.800415,404.256653 648.374207,404.148132    C579.779785,403.886200 511.183563,404.010132 442.588348,404.134613    C430.785645,404.156036 419.228455,406.084167 409.928009,414.186829    C406.101471,417.520599 403.132599,421.838898 399.508362,425.897583    C397.831116,420.055176 395.900177,414.093018 395.094238,407.982452    C390.911102,376.266907 398.980865,347.249847 416.275177,320.888977    C426.112701,305.894196 439.300323,293.961517 455.025726,284.907928    C469.916504,276.334839 485.801666,270.358490 502.736267,268.525604    C516.012573,267.088684 529.655762,266.776337 542.923401,268.098022    C559.476807,269.746979 575.812073,273.585358 592.610962,276.543427    C593.331116,270.381653 593.685120,263.142395 595.100037,256.116821    C598.105835,241.192657 601.468994,226.331802 605.100525,211.546906    C606.375183,206.357330 609.096558,201.520615 614.321045,199.095627    C621.373169,195.822296 627.006592,200.015030 631.388550,204.226334    C643.705505,216.063507 655.851135,228.169754 666.983704,241.100235    C670.976929,245.738403 674.727112,244.283020 678.341309,243.739746    C695.404419,241.174866 712.370239,241.260468 729.389465,243.844910    C732.881775,244.375198 735.667114,243.955383 738.474487,240.572144    C750.238220,226.395264 762.495178,212.612701 778.072510,202.338928    C788.608276,195.390244 796.664978,197.580093 800.517029,209.563354    C803.799316,219.774048 806.150330,230.380692 807.834473,240.983536    C809.830444,253.549683 810.618286,266.305450 812.078308,278.961914    C812.257202,280.512970 813.044617,282.223969 814.070068,283.411926    C825.437256,296.580139 831.970276,311.919403 835.197998,328.890503    C838.751465,347.574738 837.488525,365.901703 831.444275,383.856323    C830.221924,387.487488 830.330261,389.716400 833.577637,392.212921    C843.643494,399.951355 850.392639,409.783508 852.470947,422.693054    C854.089722,432.748535 851.523254,441.746826 846.992432,450.868713   M656.553467,315.849518    C650.406616,313.715973 646.245911,314.614868 643.134766,318.748627    C640.340027,322.462097 640.186279,327.648163 642.761414,331.341370    C645.509338,335.282318 650.807983,337.522827 655.012451,335.223145    C657.867920,333.661316 660.579895,330.474091 661.690308,327.410065    C663.285950,323.007111 661.091309,319.002686 656.553467,315.849518   M760.841553,330.038940    C763.318054,322.412170 760.791748,316.545746 754.333496,314.926300    C748.941956,313.574310 743.753784,316.181671 741.788391,321.230988    C739.789734,326.365723 741.687744,332.099731 746.227478,334.641815    C751.171692,337.410370 756.298645,336.006348 760.841553,330.038940   M712.027954,343.635101    C706.476685,339.593384 700.287903,340.926178 694.271545,341.762878    C689.723328,342.395386 688.218567,346.044312 691.025574,349.803040    C693.290955,352.836548 696.145752,355.463013 698.949097,358.041718    C699.801208,358.825562 701.410828,359.295776 702.572266,359.142456    C706.855225,358.576965 713.352600,348.643524 712.027954,343.635101   M593.648804,343.166260    C592.661316,343.042450 591.592102,342.616547 590.703064,342.856873    C588.774109,343.378235 585.559326,343.934875 585.319092,345.019531    C584.574524,348.380676 587.707581,348.143585 589.957336,348.444061    C600.475098,349.848938 610.980469,351.361359 621.521790,352.558136    C623.070435,352.733978 624.788147,351.421661 626.427612,350.797882    C624.986816,349.584961 623.684265,347.567291 622.082336,347.292053    C612.930847,345.719635 603.708130,344.561890 593.648804,343.166260   M810.853333,342.739471    C800.507080,344.174286 790.145691,345.513824 779.833130,347.159943    C778.485352,347.375092 777.388855,349.164642 776.175903,350.224976    C777.357056,351.073059 778.640564,352.767853 779.703796,352.639435    C791.547791,351.208527 803.367676,349.560944 815.159058,347.744537    C816.183838,347.586639 816.960144,345.815399 817.851868,344.793640    C816.788330,343.959930 815.827087,342.882599 814.625366,342.378357    C813.828308,342.043945 812.686951,342.530029 810.853333,342.739471   M602.369080,372.656616    C609.468262,370.997894 616.598877,369.456360 623.635193,367.563843    C624.794434,367.252045 625.539673,365.400696 626.476257,364.260803    C625.203674,363.551849 623.755737,362.028717 622.685364,362.259155    C611.343750,364.700775 600.038879,367.329895 588.795593,370.189148    C587.494141,370.520081 586.626282,372.555817 585.557373,373.801178    C587.022461,374.405273 588.585571,375.682648 589.934021,375.486176    C593.853027,374.915314 597.685974,373.753845 602.369080,372.656616   M786.113892,363.549072    C784.341553,363.114990 782.537354,362.246948 780.806152,362.373901    C779.205627,362.491272 777.683228,363.674530 776.126465,364.388367    C777.265625,365.507355 778.235596,367.305481 779.570679,367.638031    C790.347961,370.322571 801.170654,372.842926 812.044312,375.101654    C813.630554,375.431183 815.559570,374.110748 817.329956,373.553772    C815.923584,372.290070 814.704712,370.306061 813.079529,369.882965    C804.416931,367.627838 795.652649,365.763153 786.113892,363.549072   z"/>
<path fill="#857769" opacity="1.000000" stroke="none" d="  M586.399658,1090.560791    C594.023376,1099.848267 601.385803,1108.865234 611.528259,1115.095703    C614.503357,1116.923340 615.786255,1119.870972 614.143616,1123.289917    C612.416748,1126.884155 609.263977,1127.831055 605.749878,1126.465576    C603.477356,1125.582397 601.179932,1124.232300 599.471497,1122.516113    C589.527649,1112.527344 579.754944,1102.368164 569.665222,1092.000366    C567.002808,1093.917480 565.276062,1097.100830 565.596680,1101.745850    C566.008606,1107.713379 565.809753,1113.726685 565.782166,1119.719849    C565.760864,1124.348999 563.341187,1127.228394 559.634277,1127.250732    C555.767517,1127.274048 553.187744,1124.565430 553.168152,1119.995972    C553.063660,1095.689453 553.044861,1071.382568 552.992920,1047.075806    C552.984192,1042.967896 554.747070,1040.316528 559.073730,1040.105347    C563.005371,1039.913208 565.619690,1042.635986 565.680969,1047.202271    C565.802979,1056.290283 565.717041,1065.380981 566.754517,1074.897827    C572.602112,1067.998047 578.447083,1061.096191 584.298279,1054.199463    C587.313477,1050.645508 590.261841,1047.030884 593.381226,1043.570557    C596.999756,1039.556641 601.294373,1038.943848 604.236328,1041.820557    C607.079285,1044.600464 606.551697,1048.431030 603.118652,1052.363281    C595.025146,1061.633789 587.040161,1070.999146 578.831543,1080.534912    C581.385864,1083.925781 583.780151,1087.104126 586.399658,1090.560791   z"/>
<path fill="#867769" opacity="1.000000" stroke="none" d="  M348.963013,1040.970703    C361.354706,1043.483398 369.845001,1050.154663 372.634308,1062.247925    C375.309814,1073.847900 372.227203,1084.132935 362.415070,1091.547852    C356.276306,1096.186890 349.017578,1098.041626 341.380096,1098.385742    C339.730499,1098.460083 338.074646,1098.396729 335.903839,1098.396729    C335.903839,1105.458130 336.023529,1112.209106 335.831421,1118.951294    C335.773254,1120.993408 335.472321,1123.722900 334.168549,1124.858398    C332.561615,1126.258057 329.330200,1127.398315 327.644043,1126.677612    C325.718475,1125.854614 323.684204,1122.948730 323.502441,1120.795410    C322.789917,1112.354614 322.627625,1103.855103 322.559174,1095.374878    C322.436981,1080.240234 322.535797,1065.103882 322.532135,1049.968262    C322.530945,1045.087891 324.751556,1041.825684 329.723969,1041.459595    C335.977295,1040.999146 342.269348,1041.065552 348.963013,1040.970703   M335.171082,1054.996216    C335.171082,1064.926758 335.171082,1074.857422 335.171082,1084.659668    C345.888550,1087.650391 356.978973,1082.918335 359.682892,1074.350098    C361.636444,1068.159668 360.797943,1062.204590 355.820740,1057.858398    C349.950897,1052.732788 342.938507,1051.513306 335.171082,1054.996216   z"/>
<path fill="#86776A" opacity="1.000000" stroke="none" d="  M720.413208,1094.718628    C720.479004,1089.586304 720.361450,1084.909546 720.671509,1080.261230    C720.996704,1075.384766 723.925842,1072.673584 727.850403,1073.098145    C731.654419,1073.509521 733.192993,1076.284058 733.192932,1081.210938    C733.192871,1087.850952 733.350952,1094.521606 734.021973,1101.119995    C734.468140,1105.507935 736.066223,1109.787354 741.425293,1110.512207    C745.195557,1111.022095 749.273743,1107.607422 750.455933,1101.980591    C751.608765,1096.494141 751.714355,1090.782837 752.202209,1085.163574    C752.389160,1083.010376 752.153992,1080.806885 752.478210,1078.682251    C753.027588,1075.082031 755.244873,1072.967773 758.970154,1073.084717    C762.736877,1073.203003 765.008728,1075.563354 764.956970,1079.151001    C764.680847,1098.285278 764.835388,1117.462524 763.503479,1136.531616    C762.670044,1148.463745 755.240112,1155.908691 745.570557,1157.996460    C737.836792,1159.666382 728.583496,1155.566895 725.070984,1148.744507    C723.277405,1145.260620 722.460449,1141.512939 726.485901,1139.031006    C730.329712,1136.661011 733.238159,1138.215454 735.677795,1141.874146    C739.453735,1147.536987 746.955444,1147.051270 749.419495,1140.464600    C751.677185,1134.429321 752.155518,1127.728516 753.573364,1120.531616    C751.257324,1120.918701 750.454346,1120.932861 749.738953,1121.190308    C737.131897,1125.725830 727.113098,1121.101685 722.944336,1108.380371    C721.561157,1104.159790 721.229980,1099.594360 720.413208,1094.718628   z"/>
<path fill="#857769" opacity="1.000000" stroke="none" d="  M818.738403,1040.960083    C824.428772,1043.318848 829.792664,1045.410767 834.837219,1048.101318    C836.539856,1049.009399 838.330078,1051.362915 838.477051,1053.185303    C838.676575,1055.658691 838.075562,1059.543213 836.464539,1060.470215    C834.520142,1061.588867 830.301514,1061.265991 828.552124,1059.797852    C818.560181,1051.412354 809.691589,1051.841919 801.121338,1061.807373    C791.566650,1072.917603 790.553711,1093.860596 798.989197,1105.891113    C806.190002,1116.160767 819.095581,1117.860596 828.668823,1109.800293    C832.690857,1106.413940 835.969543,1106.313477 838.584717,1109.496582    C841.127625,1112.591675 840.513794,1116.295410 836.917480,1119.556274    C821.041748,1133.951294 794.278442,1128.702148 785.243835,1109.047607    C776.887695,1090.869019 778.248108,1072.958008 789.221252,1056.218872    C795.941956,1045.966797 805.554443,1040.236206 818.738403,1040.960083   z"/>
<path fill="#857669" opacity="1.000000" stroke="none" d="  M857.780762,1084.849121    C863.732849,1075.922607 871.526611,1071.325562 882.097656,1073.050903    C891.724121,1074.621948 897.751465,1082.307617 897.938782,1091.950317    C898.041626,1097.243774 898.434753,1102.621582 899.569519,1107.769043    C900.187195,1110.571045 902.300049,1113.275391 904.333008,1115.473999    C906.773682,1118.113647 908.056824,1120.728516 906.101929,1123.917847    C903.988708,1127.365601 900.583496,1127.745605 897.373840,1125.905273    C893.975037,1123.956543 890.957642,1121.342529 887.773682,1119.019043    C888.203308,1118.393921 888.632935,1117.768799 889.062561,1117.143555    C887.132935,1119.179199 885.447693,1121.542358 883.232483,1123.195190    C872.312317,1131.343262 857.598206,1126.008911 853.980225,1112.630859    C851.379395,1103.013794 852.690674,1093.833374 857.780762,1084.849121   M867.562744,1093.288452    C866.943481,1097.963745 865.948853,1102.629272 865.829041,1107.317383    C865.740173,1110.789185 867.544006,1114.515869 871.382568,1114.333496    C873.994690,1114.209351 877.767395,1112.080200 878.775879,1109.837891    C881.305420,1104.213623 882.893066,1098.088745 884.221863,1092.025146    C885.333679,1086.951416 881.649292,1083.426880 876.798950,1085.314575    C873.405396,1086.635254 870.849060,1090.107056 867.562744,1093.288452   z"/>
<path fill="#86786A" opacity="1.000000" stroke="none" d="  M475.189697,1106.077148    C472.393036,1117.460571 466.109833,1125.002808 454.566895,1126.948364    C442.001373,1129.066284 431.776398,1122.765137 427.880981,1110.586914    C424.386658,1099.662598 426.143188,1089.352783 433.438293,1080.560913    C439.584137,1073.154297 447.898132,1070.717041 457.300507,1073.228882    C466.670105,1075.732178 472.540466,1082.101318 474.669647,1091.335449    C475.725403,1095.914185 475.122650,1100.875122 475.189697,1106.077148   M456.762604,1086.419678    C448.956116,1083.304810 442.682159,1085.651123 440.178925,1093.553711    C438.937897,1097.471436 438.837463,1102.076172 439.468689,1106.178223    C440.242035,1111.203857 444.066742,1114.170288 449.164429,1114.858887    C454.076447,1115.522217 457.909332,1113.449585 460.618774,1109.368652    C465.290314,1102.332275 463.924805,1092.951538 456.762604,1086.419678   z"/>
<path fill="#86776A" opacity="1.000000" stroke="none" d="  M932.871582,1089.100830    C933.128784,1096.060791 932.859253,1102.610596 933.810913,1108.977783    C934.776428,1115.437744 938.611145,1116.682983 943.667114,1112.642822    C946.978943,1109.996338 950.042908,1109.574707 952.842712,1112.807007    C955.715454,1116.123291 954.374878,1119.338257 951.643982,1122.098145    C942.485229,1131.353882 926.962830,1128.267090 922.671875,1115.949951    C920.902771,1110.871948 920.507751,1105.232788 920.058105,1099.801514    C919.636475,1094.709106 919.967773,1089.554443 919.967773,1084.122192    C915.165405,1083.286743 908.118225,1084.973633 908.473267,1077.259033    C908.831848,1069.466919 915.848389,1071.973755 921.048767,1071.034058    C921.473694,1066.206787 921.857056,1061.282837 922.352966,1056.370361    C922.895813,1050.992920 925.536438,1048.150024 929.478943,1048.536011    C933.300659,1048.910156 935.168701,1051.804199 934.870300,1057.166016    C934.621521,1061.635254 934.219971,1066.096069 933.822205,1071.414673    C937.541565,1071.414673 940.962952,1071.410645 944.384399,1071.415771    C948.597778,1071.422119 951.583069,1073.052124 951.852905,1077.640991    C952.074280,1081.405884 949.277222,1083.569824 944.335632,1083.709717    C942.505920,1083.761475 940.672974,1083.697754 938.841492,1083.692749    C937.189392,1083.688110 935.537292,1083.691650 933.281738,1083.691650    C933.136719,1085.469971 933.008667,1087.040283 932.871582,1089.100830   z"/>
<path fill="#857669" opacity="1.000000" stroke="none" d="  M687.925903,1052.239014    C688.077148,1058.546631 688.077148,1064.503296 688.077148,1071.392212    C691.015808,1071.392212 694.417603,1071.330566 697.816345,1071.406982    C702.634338,1071.515137 705.376160,1073.765625 705.416626,1077.507446    C705.456055,1081.157471 702.656250,1083.493530 697.824829,1083.683960    C694.503113,1083.814941 691.174683,1083.772705 687.850037,1083.841919    C687.548889,1083.848022 687.252930,1084.102905 685.846069,1084.759888    C686.223511,1092.669922 686.143188,1101.123169 687.186707,1109.435303    C687.933655,1115.385254 692.087219,1116.554565 696.913025,1112.722900    C699.980957,1110.286987 702.924866,1109.594116 705.725647,1112.592773    C708.699463,1115.776489 707.656433,1118.969727 704.980774,1121.895020    C696.875061,1130.756958 681.746887,1128.918701 676.955933,1117.962158    C674.751831,1112.921509 673.965637,1107.107666 673.380615,1101.555420    C672.791870,1095.968750 673.251038,1090.271851 673.251038,1083.941284    C671.490906,1083.843750 669.569275,1083.775757 667.654419,1083.622559    C663.964233,1083.327148 661.706970,1081.382080 661.656067,1077.615479    C661.608704,1074.111206 663.648804,1072.154541 667.084717,1071.560547    C674.749023,1070.235596 674.714355,1070.217651 675.197327,1062.645020    C675.355896,1060.158569 675.246765,1057.495728 676.132080,1055.258667    C677.073792,1052.878784 678.694275,1049.682007 680.674988,1049.108032    C682.610413,1048.547119 685.374390,1050.845215 687.925903,1052.239014   z"/>
<path fill="#857668" opacity="1.000000" stroke="none" d="  M529.077209,1116.112793    C527.843201,1123.417480 522.614075,1125.744751 516.664856,1126.914795    C509.125824,1128.397339 502.079315,1125.943237 499.216919,1119.441040    C496.671204,1113.658203 495.503265,1107.119507 494.642426,1100.789917    C493.912903,1095.426147 494.491943,1089.884399 494.491943,1084.236328    C490.395874,1082.619873 483.091644,1085.173218 483.406525,1077.441895    C483.727570,1069.558716 490.931519,1072.364624 495.720001,1070.927246    C496.224243,1066.197876 496.759308,1061.430176 497.234589,1056.656494    C497.799927,1050.978394 500.025452,1048.335205 504.056610,1048.649902    C508.117798,1048.966919 510.061707,1052.066284 509.616608,1057.544800    C509.347076,1060.862061 509.036377,1064.176025 508.785065,1067.494507    C508.710144,1068.483643 508.773529,1069.483154 508.773529,1071.406616    C512.306213,1071.406616 515.720032,1071.341553 519.130371,1071.422241    C523.956299,1071.536255 526.877319,1073.820557 526.686523,1077.538208    C526.443237,1082.280640 523.092651,1083.503174 519.060364,1083.593140    C515.574219,1083.670776 512.084961,1083.609253 507.904327,1083.609253    C507.122803,1092.778076 506.376862,1101.698853 508.595428,1110.449951    C509.893951,1115.571899 513.800476,1116.159058 518.762451,1112.645020    C523.671814,1109.168213 526.685608,1110.069214 529.077209,1116.112793   z"/>
<path fill="#86776A" opacity="1.000000" stroke="none" d="  M390.127808,1113.760986    C389.491669,1097.602905 388.874023,1081.838379 388.453552,1066.068604    C388.351868,1062.255737 388.912689,1058.426392 389.149139,1054.603394    C389.450592,1049.729980 391.667999,1047.109009 395.455750,1047.182617    C399.424866,1047.259766 401.806824,1050.181030 401.700623,1055.197998    C401.422180,1068.350952 400.895416,1081.500488 400.789246,1094.654053    C400.749207,1099.617310 401.339661,1104.627930 402.117310,1109.541870    C402.707672,1113.271973 404.833069,1115.513184 409.203583,1114.312866    C412.885284,1113.301758 415.450653,1114.909668 416.457886,1118.531494    C417.421844,1121.997803 415.571320,1124.294434 412.659790,1125.812012    C406.639221,1128.950073 397.884369,1126.926147 393.793671,1121.242065    C392.266693,1119.120239 391.391205,1116.529541 390.127808,1113.760986   z"/>
<path fill="#857769" opacity="1.000000" stroke="none" d="  M645.158203,1100.607422    C645.408142,1107.233765 645.631592,1113.392212 645.884949,1119.549438    C646.053406,1123.644775 644.423584,1126.398438 640.130188,1126.832642    C636.305298,1127.219727 633.382751,1124.451172 633.264221,1119.945435    C632.913940,1106.626221 632.705200,1093.301392 632.626282,1079.977783    C632.598083,1075.220459 635.109375,1072.637085 638.993408,1072.681030    C642.918213,1072.725464 645.028564,1075.274048 645.069031,1080.148804    C645.124329,1086.811890 645.122009,1093.475586 645.158203,1100.607422   z"/>
<path fill="#86786A" opacity="1.000000" stroke="none" d="  M637.446777,1048.183228    C643.376953,1048.590210 646.004639,1050.935547 645.875427,1055.457642    C645.758911,1059.536377 643.520630,1062.079346 639.559875,1062.538940    C635.906921,1062.963013 632.922485,1061.393311 631.942566,1057.612305    C630.761719,1053.055298 632.602356,1049.865845 637.446777,1048.183228   z"/>
<path fill="#FAF5EC" opacity="1.000000" stroke="none" d="  M643.000000,520.948242    C659.967407,520.925293 676.420959,520.527893 692.590210,524.860840    C726.096619,533.839783 745.524719,556.389343 749.189148,590.953247    C751.153625,609.482239 748.572632,627.267151 739.386353,643.570496    C727.659546,664.382751 709.184814,675.892029 685.928345,679.842407    C678.744751,681.062683 671.392334,681.794312 664.110840,681.845764    C632.469177,682.069519 600.825134,681.974182 569.181946,681.962830    C558.415588,681.958984 552.198486,676.209900 552.163025,665.407959    C552.023010,622.773376 552.029175,580.137756 552.167847,537.503113    C552.204102,526.351990 558.222290,520.931763 569.553162,520.934570    C593.868774,520.940613 618.184387,520.944336 643.000000,520.948242   z"/>
<path fill="#514134" opacity="1.000000" stroke="none" d="  M656.881104,316.027771    C661.091309,319.002686 663.285950,323.007111 661.690308,327.410065    C660.579895,330.474091 657.867920,333.661316 655.012451,335.223145    C650.807983,337.522827 645.509338,335.282318 642.761414,331.341370    C640.186279,327.648163 640.340027,322.462097 643.134766,318.748627    C646.245911,314.614868 650.406616,313.715973 656.881104,316.027771   z"/>
<path fill="#514134" opacity="1.000000" stroke="none" d="  M760.668945,330.386597    C756.298645,336.006348 751.171692,337.410370 746.227478,334.641815    C741.687744,332.099731 739.789734,326.365723 741.788391,321.230988    C743.753784,316.181671 748.941956,313.574310 754.333496,314.926300    C760.791748,316.545746 763.318054,322.412170 760.668945,330.386597   z"/>
<path fill="#564638" opacity="1.000000" stroke="none" d="  M712.261719,343.961639    C713.352600,348.643524 706.855225,358.576965 702.572266,359.142456    C701.410828,359.295776 699.801208,358.825562 698.949097,358.041718    C696.145752,355.463013 693.290955,352.836548 691.025574,349.803040    C688.218567,346.044312 689.723328,342.395386 694.271545,341.762878    C700.287903,340.926178 706.476685,339.593384 712.261719,343.961639   z"/>
<path fill="#736458" opacity="1.000000" stroke="none" d="  M594.079224,343.214783    C603.708130,344.561890 612.930847,345.719635 622.082336,347.292053    C623.684265,347.567291 624.986816,349.584961 626.427612,350.797882    C624.788147,351.421661 623.070435,352.733978 621.521790,352.558136    C610.980469,351.361359 600.475098,349.848938 589.957336,348.444061    C587.707581,348.143585 584.574524,348.380676 585.319092,345.019531    C585.559326,343.934875 588.774109,343.378235 590.703064,342.856873    C591.592102,342.616547 592.661316,343.042450 594.079224,343.214783   z"/>
<path fill="#736458" opacity="1.000000" stroke="none" d="  M811.276550,342.694122    C812.686951,342.530029 813.828308,342.043945 814.625366,342.378357    C815.827087,342.882599 816.788330,343.959930 817.851807,344.793610    C816.960144,345.815399 816.183838,347.586639 815.159058,347.744537    C803.367676,349.560944 791.547791,351.208527 779.703796,352.639435    C778.640564,352.767853 777.357056,351.073059 776.175903,350.224976    C777.388855,349.164642 778.485352,347.375092 779.833130,347.159943    C790.145691,345.513824 800.507080,344.174286 811.276550,342.694122   z"/>
<path fill="#736458" opacity="1.000000" stroke="none" d="  M601.960876,372.740326    C597.685974,373.753845 593.853027,374.915314 589.934021,375.486176    C588.585571,375.682648 587.022461,374.405273 585.557373,373.801178    C586.626282,372.555817 587.494141,370.520081 588.795593,370.189148    C600.038879,367.329895 611.343750,364.700775 622.685364,362.259155    C623.755737,362.028717 625.203674,363.551849 626.476257,364.260803    C625.539673,365.400696 624.794434,367.252045 623.635193,367.563843    C616.598877,369.456360 609.468262,370.997894 601.960876,372.740326   z"/>
<path fill="#736458" opacity="1.000000" stroke="none" d="  M786.518738,363.656250    C795.652649,365.763153 804.416931,367.627838 813.079529,369.882965    C814.704712,370.306061 815.923584,372.290070 817.329956,373.553772    C815.559570,374.110748 813.630554,375.431183 812.044312,375.101654    C801.170654,372.842926 790.347961,370.322571 779.570679,367.638031    C778.235596,367.305481 777.265625,365.507355 776.126465,364.388367    C777.683228,363.674530 779.205627,362.491272 780.806152,362.373901    C782.537354,362.246948 784.341553,363.114990 786.518738,363.656250   z"/>
<path fill="#F8F3EA" opacity="1.000000" stroke="none" d="  M335.303528,1054.558838    C342.938507,1051.513306 349.950897,1052.732788 355.820740,1057.858398    C360.797943,1062.204590 361.636444,1068.159668 359.682892,1074.350098    C356.978973,1082.918335 345.888550,1087.650391 335.171082,1084.659668    C335.171082,1074.857422 335.171082,1064.926758 335.303528,1054.558838   z"/>
<path fill="#F8F3EA" opacity="1.000000" stroke="none" d="  M867.740723,1092.953247    C870.849060,1090.107056 873.405396,1086.635254 876.798950,1085.314575    C881.649292,1083.426880 885.333679,1086.951416 884.221863,1092.025146    C882.893066,1098.088745 881.305420,1104.213623 878.775879,1109.837891    C877.767395,1112.080200 873.994690,1114.209351 871.382568,1114.333496    C867.544006,1114.515869 865.740173,1110.789185 865.829041,1107.317383    C865.948853,1102.629272 866.943481,1097.963745 867.740723,1092.953247   z"/>
<path fill="#F8F3EA" opacity="1.000000" stroke="none" d="  M457.082642,1086.636597    C463.924805,1092.951538 465.290314,1102.332275 460.618774,1109.368652    C457.909332,1113.449585 454.076447,1115.522217 449.164429,1114.858887    C444.066742,1114.170288 440.242035,1111.203857 439.468689,1106.178223    C438.837463,1102.076172 438.937897,1097.471436 440.178925,1093.553711    C442.682159,1085.651123 448.956116,1083.304810 457.082642,1086.636597   z"/>
</svg>