<svg xmlns="http://www.w3.org/2000/svg" viewBox="0 0 100 100" width="100" height="100">
  <path d="M 15,22             C 18,20 82,18 85,22             L 83,72             C 80,76 18,74 15,70             Z" fill="none" stroke="#333333" stroke-width="3.5" stroke-linecap="round" stroke-linejoin="round"/>
  
  <path d="M 32,48 C 40,36 60,36 68,48" fill="none" stroke="#333333" stroke-width="3" stroke-linecap="round"/>
  <path d="M 32,48 C 40,60 60,60 68,48" fill="none" stroke="#333333" stroke-width="3" stroke-linecap="round"/>
  
  <path d="M 50,38 L 50,58 M 40,48 L 60,48" fill="none" stroke="#333333" stroke-width="2" stroke-linecap="round" opacity="0.7"/>
  <path d="M 42,54 C 45,54 47,42 50,48 C 53,54 55,42 58,42" fill="none" stroke="#333333" stroke-width="3" stroke-linecap="round" stroke-linejoin="round"/>

  <path d="M 10,82 L 90,81" fill="none" stroke="#333333" stroke-width="4" stroke-linecap="round"/>
  <path d="M 22,78 L 28,65" fill="none" stroke="#333333" stroke-width="3" stroke-linecap="round"/>
</svg>