<svg xmlns="http://www.w3.org/2000/svg" viewBox="0 0 100 100" width="100" height="100">
  <path d="M 25,15             L 65,14             C 72,25 70,30 82,32             L 80,82             C 50,85 40,81 22,83             Z" fill="none" stroke="#333333" stroke-width="3.5" stroke-linecap="round" stroke-linejoin="round"/>
  
  <path d="M 65,14             C 66,28 68,30 82,32            C 73,34 62,24 65,14 Z" fill="none" stroke="#333333" stroke-width="3" stroke-linecap="round" stroke-linejoin="round"/>

  <path d="M 50,55             C 65,58 75,50 72,38            M 65,41 L 72,38 L 75,46" fill="none" stroke="#333333" stroke-width="3" stroke-linecap="round" stroke-linejoin="round"/>

  <path d="M 32,30 L 55,29 M 33,45 L 60,43 M 31,60 L 50,61" fill="none" stroke="#333333" stroke-width="2.5" stroke-linecap="round"/>
</svg>